<?xml version="1.0" standalone="no"?>
<!DOCTYPE svg PUBLIC "-//W3C//DTD SVG 20010904//EN"
 "http://www.w3.org/TR/2001/REC-SVG-20010904/DTD/svg10.dtd">
<svg version="1.0" xmlns="http://www.w3.org/2000/svg"
 width="300.000000pt" height="300.000000pt" viewBox="0 0 300.000000 300.000000"
 preserveAspectRatio="xMidYMid meet">
<metadata>
Created by potrace 1.10, written by Peter Selinger 2001-2011
</metadata>
<g transform="translate(0.000000,300.000000) scale(0.100000,-0.100000)"
fill="#000000" stroke="none">
<path d="M1285 2949 c-646 -100 -1150 -613 -1236 -1257 -16 -122 -6 -383 19
-497 114 -510 479 -918 965 -1080 179 -59 250 -70 467 -70 217 0 288 11 467
70 215 72 394 184 564 354 212 212 341 451 406 752 26 119 26 438 0 559 -42
195 -118 377 -226 540 -70 106 -229 272 -340 355 -152 115 -361 209 -565 257
-71 16 -132 21 -276 24 -102 1 -212 -1 -245 -7z m499 -94 c421 -95 768 -366
955 -742 235 -474 184 -1025 -135 -1448 -61 -81 -205 -224 -284 -282 -267
-195 -619 -294 -932 -263 -192 19 -336 59 -501 141 -331 164 -587 460 -701
810 -53 164 -61 223 -61 439 1 170 4 207 24 290 65 265 184 481 366 666 215
218 484 356 784 404 85 13 404 4 485 -15z"/>
<path d="M1330 2774 c-264 -47 -464 -135 -645 -286 -217 -179 -366 -419 -437
-701 -20 -81 -23 -115 -22 -292 0 -192 2 -205 32 -318 163 -615 748 -1021
1377 -956 165 17 362 81 500 161 596 347 820 1082 515 1688 -168 334 -469 579
-827 672 -106 27 -136 31 -293 33 -96 2 -186 1 -200 -1z m425 -48 c113 -25
203 -58 310 -111 95 -47 123 -74 71 -67 -24 3 -217 -58 -270 -85 -16 -8 -50
-21 -77 -29 -64 -19 -99 -61 -99 -119 0 -37 5 -49 36 -79 31 -31 35 -38 29
-70 -8 -39 -11 -41 -49 -27 -21 9 -25 18 -31 68 -15 144 -15 146 -55 185 -31
31 -45 38 -78 38 -32 0 -45 -6 -65 -29 -27 -33 -43 -116 -32 -174 5 -26 -3
-62 -33 -149 -47 -135 -58 -158 -76 -158 -8 0 -19 -7 -26 -15 -7 -8 -16 -12
-21 -9 -5 3 -9 74 -9 158 0 145 -1 154 -22 174 -63 58 -117 45 -174 -43 -34
-55 -47 -64 -59 -45 -3 6 -26 10 -49 10 -50 0 -83 -22 -116 -75 -20 -33 -23
-34 -43 -20 -30 21 -35 19 -70 -17 -16 -18 -32 -28 -34 -22 -2 6 -17 32 -33
58 -53 82 -128 108 -196 65 -25 -15 -45 -43 -74 -102 -62 -130 -75 -190 -75
-358 0 -142 1 -146 28 -188 43 -64 80 -83 152 -78 111 8 143 40 176 172 l17
70 1 -65 c1 -36 7 -72 14 -81 16 -21 51 -39 76 -39 28 0 61 47 61 86 0 36 15
53 33 35 6 -6 29 -11 51 -11 34 0 46 6 86 48 26 27 51 64 57 87 7 22 19 49 27
60 14 19 15 17 16 -25 2 -68 8 -92 32 -117 30 -32 69 -30 106 8 26 26 33 29
51 20 38 -21 87 23 116 102 18 47 46 77 73 77 7 0 28 -33 47 -74 51 -112 103
-142 163 -92 18 16 36 23 49 20 26 -7 95 28 121 60 15 20 21 48 26 136 9 135
16 155 59 174 55 22 175 105 226 155 56 55 101 140 101 193 0 22 5 38 12 38
19 0 160 -152 216 -233 74 -107 155 -283 188 -407 36 -136 45 -382 20 -525
-75 -437 -379 -800 -802 -961 -230 -87 -515 -100 -764 -34 -108 28 -324 133
-415 201 -260 196 -439 489 -491 808 -25 151 -15 363 24 512 116 437 462 787
892 900 158 41 426 48 575 15z m438 -232 c59 -12 84 -75 55 -141 -14 -31 -59
-96 -71 -101 -4 -2 -15 -11 -24 -20 -42 -42 -88 -72 -102 -67 -8 3 -12 3 -8
-1 17 -17 -122 -92 -145 -78 -6 4 -8 -4 -7 -17 2 -13 0 -29 -4 -35 -4 -7 -9
-65 -12 -129 -3 -65 -9 -123 -15 -130 -19 -23 -90 -49 -102 -37 -15 15 7 287
33 402 11 47 22 97 25 113 8 32 -5 35 -42 11 -13 -9 -27 -14 -31 -10 -3 3 -8
30 -10 59 l-4 52 43 24 43 24 -20 -23 c-16 -18 -5 -14 59 18 44 23 112 51 153
64 40 12 73 26 73 31 0 8 40 5 113 -9z m-595 -129 c22 -28 40 -144 42 -273 l0
-23 28 21 c17 13 35 18 45 14 15 -5 11 -12 -23 -41 -38 -33 -40 -38 -39 -86 1
-56 20 -154 43 -228 13 -43 13 -46 -6 -58 -24 -15 -57 3 -75 40 -12 26 -58
143 -67 171 -4 15 -14 12 -67 -25 -53 -36 -65 -49 -79 -93 -32 -93 -65 -120
-87 -71 -8 18 -5 34 19 80 28 57 29 59 9 64 -12 3 -21 11 -21 19 0 10 6 11 25
4 23 -9 27 -6 46 31 11 23 38 91 59 153 33 96 38 122 37 196 -1 116 5 130 53
130 29 0 43 -6 58 -25z m-375 -158 c25 -20 27 -25 17 -57 -6 -19 -8 -55 -5
-80 2 -25 7 -114 10 -199 4 -85 8 -158 11 -162 7 -11 -17 -57 -32 -63 -30 -12
-41 5 -48 75 -3 38 -3 87 0 109 7 46 -4 170 -15 170 -5 0 -16 -21 -26 -47 -10
-27 -21 -53 -26 -58 -4 -6 -21 -53 -38 -105 -38 -117 -80 -170 -135 -170 -38
0 -45 14 -26 50 13 23 23 237 11 224 -22 -22 -101 -292 -101 -343 0 -43 -8
-55 -26 -41 -6 6 -18 9 -25 8 -10 -2 -14 7 -13 32 1 19 5 132 9 250 3 118 8
221 10 227 3 7 11 10 20 7 11 -5 15 -21 15 -66 0 -81 16 -73 61 31 43 97 52
107 101 114 50 7 54 -9 32 -132 -9 -52 17 -34 41 30 48 123 109 219 139 219 6
0 23 -10 39 -23z m-606 -119 c70 -72 98 -209 51 -242 -12 -9 -34 -16 -49 -16
-29 0 -27 -5 -54 167 -12 79 -40 66 -71 -32 -26 -82 -25 -271 2 -345 37 -102
69 -90 69 26 0 70 2 77 25 90 33 18 66 18 73 -1 8 -19 -20 -187 -37 -229 -10
-25 -22 -35 -47 -40 -112 -25 -155 -11 -189 58 -18 39 -21 60 -20 153 3 130
26 238 76 344 38 80 57 97 110 98 21 1 39 -8 61 -31z m1097 -167 c-7 -34 -7
-35 -14 -11 -12 40 -11 85 3 99 10 10 13 6 15 -20 2 -18 0 -49 -4 -68z m-1170
-53 c3 -18 16 -43 29 -56 l22 -24 -35 -29 c-31 -26 -35 -28 -42 -12 -14 37 -5
153 12 153 4 0 10 -14 14 -32z m185 -71 c-1 -18 -4 -42 -7 -55 -7 -21 -8 -21
-35 13 l-28 35 28 24 c34 29 43 25 42 -17z"/>
<path d="M1963 1628 c-31 -35 -33 -53 -13 -92 19 -34 19 -36 2 -66 -19 -33
-28 -36 -56 -15 -33 25 -81 19 -120 -15 -18 -17 -37 -41 -40 -55 -8 -30 -17
-31 -41 -5 -36 39 -95 11 -110 -52 -8 -33 -10 -34 -42 -8 -48 37 -98 17 -144
-57 l-23 -37 -18 40 c-10 21 -18 60 -18 85 0 31 -6 52 -20 67 -12 12 -24 22
-27 22 -18 0 -90 -52 -100 -72 -7 -13 -15 -80 -18 -149 -4 -69 -11 -132 -15
-139 -6 -10 -36 13 -113 88 l-105 102 -55 0 c-40 0 -61 -5 -81 -21 -35 -28
-33 -53 10 -97 61 -62 129 -239 118 -308 -7 -47 6 -80 35 -89 47 -14 161 48
161 88 0 5 -18 26 -39 47 -36 32 -70 90 -54 90 4 0 39 -31 79 -70 39 -38 78
-70 86 -70 32 0 51 39 62 129 6 49 14 92 18 96 3 3 11 -10 18 -30 9 -28 9 -43
0 -66 -10 -24 -10 -33 4 -53 8 -14 24 -27 35 -31 21 -6 116 28 143 52 24 22
91 35 100 20 14 -22 8 -49 -17 -78 -18 -22 -23 -37 -19 -59 5 -20 0 -38 -16
-60 -17 -24 -21 -39 -16 -65 8 -42 51 -95 77 -95 11 0 34 -16 51 -36 24 -27
37 -35 55 -31 19 3 27 -2 40 -27 23 -47 44 -66 69 -66 35 0 57 40 49 90 -6 34
-3 45 19 71 14 17 26 39 26 50 0 24 11 24 40 -1 13 -11 31 -20 40 -20 23 0 60
42 60 67 0 31 25 35 51 7 12 -13 30 -24 40 -24 21 0 59 45 59 71 0 10 22 37
49 59 59 50 65 62 50 109 -16 51 -47 81 -83 82 -83 1 -106 5 -129 28 -35 32
-64 21 -88 -36 l-19 -45 -31 26 c-17 14 -37 26 -45 26 -20 0 -52 -35 -60 -65
-7 -30 -9 -30 -41 -5 -14 11 -38 20 -54 20 -21 0 -29 6 -37 28 -8 24 -4 31 35
69 41 40 45 42 91 36 59 -7 99 12 138 62 24 32 28 34 47 20 36 -25 59 -17 109
36 45 48 51 51 74 40 58 -26 124 -6 168 52 31 40 33 77 8 100 -24 22 -48 21
-88 -3 l-33 -21 -11 21 c-22 42 12 110 55 110 32 0 75 37 75 65 0 14 -13 34
-31 50 -25 21 -38 25 -63 19 -54 -11 -101 -44 -136 -95 -31 -46 -35 -49 -47
-33 -7 10 -13 36 -13 59 0 74 -72 112 -117 63z m82 -38 c8 -27 -11 -50 -41
-50 -27 0 -42 34 -24 55 18 22 57 19 65 -5z m279 -3 c11 -8 15 -19 10 -31 -5
-14 -14 -17 -39 -13 -78 13 -130 -95 -91 -188 19 -45 48 -46 99 -4 28 23 41
29 49 21 28 -28 -51 -102 -109 -102 -54 0 -96 66 -96 150 0 82 44 150 109 170
41 12 48 12 68 -3z m-270 -174 c-4 -64 -2 -108 5 -127 11 -27 12 -28 31 -11
25 23 44 11 29 -18 -30 -57 -77 -84 -96 -54 -4 6 -10 53 -13 102 -5 86 -6 90
-27 88 -27 -3 -28 -1 -7 40 21 41 54 77 71 77 10 0 12 -20 7 -97z m-156 -16
c18 -37 11 -42 -32 -26 -28 10 -38 10 -51 -1 -31 -26 -14 -53 57 -87 73 -35
91 -63 70 -108 -26 -56 -125 -72 -149 -25 -16 32 -3 44 29 29 19 -8 31 -8 47
0 34 18 25 39 -29 66 -27 14 -54 34 -60 44 -17 32 -12 86 11 115 17 22 28 27
58 24 28 -2 39 -9 49 -31z m-588 -8 c0 -6 -5 -19 -11 -30 -8 -16 -2 -44 32
-137 67 -187 74 -201 114 -217 20 -9 32 -20 29 -28 -4 -12 -109 -57 -133 -57
-14 0 -15 37 -1 45 19 12 10 65 -27 165 -55 149 -60 143 -84 -110 -6 -69 -13
-131 -15 -137 -2 -7 -57 41 -122 107 -66 66 -124 120 -131 120 -18 0 -12 -30
28 -135 34 -91 40 -100 69 -109 35 -10 46 -46 15 -46 -10 0 -37 -9 -60 -20
-50 -22 -61 -13 -39 35 15 32 15 37 -15 122 -54 152 -84 210 -119 228 -45 23
-33 39 31 43 l55 3 124 -120 c69 -66 128 -121 131 -121 4 0 9 7 13 15 9 25 28
277 22 306 -4 23 1 33 30 58 35 31 64 40 64 20z m376 -51 c3 -11 3 -54 -1 -96
-4 -50 -2 -87 5 -107 l12 -30 14 28 c15 27 28 34 38 19 8 -13 -26 -73 -50 -89
-29 -19 -44 -10 -44 26 0 41 -11 91 -20 91 -5 0 -18 -30 -31 -67 -13 -39 -34
-80 -51 -97 l-29 -29 -22 22 c-20 20 -22 30 -19 126 3 86 1 105 -11 105 -8 0
-21 -10 -30 -22 -8 -13 -19 -19 -23 -15 -11 11 26 77 53 94 19 13 24 12 43 -7
19 -19 20 -27 14 -125 -6 -91 -5 -105 8 -105 25 0 60 99 77 224 6 38 15 73 22
77 17 10 37 0 45 -23z m274 -19 l0 -40 -31 21 -30 22 22 24 c28 30 39 23 39
-27z m-195 -69 c21 -23 13 -50 -15 -50 -16 0 -20 6 -20 35 0 40 9 44 35 15z
m-326 -93 c12 -15 5 -67 -9 -67 -7 0 -40 77 -40 93 0 10 34 -8 49 -26z m667
-290 c36 -105 44 -141 36 -149 -18 -18 -25 -5 -76 146 -38 110 -45 140 -34
147 7 4 16 5 20 1 4 -4 29 -69 54 -145z m-366 -122 c49 -143 86 -263 83 -267
-12 -21 -32 -2 -51 50 -63 174 -152 447 -152 464 0 13 6 18 16 16 12 -2 42
-77 104 -263z m442 151 c24 -66 25 -78 12 -83 -8 -3 -19 -2 -23 3 -15 16 -53
143 -46 154 14 23 31 1 57 -74z m59 47 c21 -55 23 -83 5 -83 -16 0 -46 58 -46
91 0 29 29 23 41 -8z m-284 -118 c45 -134 48 -160 23 -160 -10 0 -30 43 -62
135 -26 74 -47 141 -48 148 0 8 9 12 22 10 18 -2 28 -24 65 -133z m-191 83 c5
-7 29 -73 54 -146 37 -112 42 -135 30 -142 -10 -6 -19 -5 -26 3 -18 19 -97
266 -90 282 7 18 21 19 32 3z m267 -60 c19 -53 23 -76 15 -85 -17 -21 -34 1
-57 70 -26 75 -26 87 -2 87 14 0 25 -18 44 -72z m-144 -57 c26 -79 26 -81 3
-81 -14 0 -24 18 -41 71 -24 74 -22 115 3 88 7 -8 23 -43 35 -78z m-226 -70
c37 -106 47 -145 38 -154 -7 -7 -14 -8 -21 -1 -16 16 -101 276 -95 291 12 33
32 -1 78 -136z m-69 -14 c20 -54 20 -67 -2 -67 -22 0 -55 83 -39 99 18 18 23
13 41 -32z"/>
<path d="M2105 2410 c-16 -4 -58 -21 -91 -38 -60 -30 -62 -32 -79 -94 -27 -99
-30 -138 -11 -138 17 0 116 69 116 81 0 4 9 9 21 12 12 3 18 10 15 15 -3 5 17
24 44 41 49 31 87 82 75 100 -9 16 -60 28 -90 21z m-36 -112 c-35 -32 -73 -63
-83 -69 -17 -10 -18 -9 -12 22 3 18 13 43 21 55 15 23 113 66 129 57 5 -3 -20
-32 -55 -65z"/>
<path d="M1471 2013 c-24 -80 -15 -100 27 -60 28 27 29 30 19 77 -5 28 -13 50
-17 50 -5 0 -17 -30 -29 -67z"/>
<path d="M1022 1929 c-18 -47 -24 -74 -16 -66 10 10 34 80 29 86 -3 2 -8 -7
-13 -20z"/>
</g>
</svg>
