<svg xmlns="http://www.w3.org/2000/svg" xmlns:xlink="http://www.w3.org/1999/xlink" width="500" zoomAndPan="magnify" viewBox="0 0 375 374.999991" height="500" preserveAspectRatio="xMidYMid meet" version="1.0">
<defs>
<g/>
<clipPath id="088385f495"><path d="M 0 1.363281 L 375 1.363281 L 375 374.863281 L 0 374.863281 Z M 0 1.363281 " clip-rule="nonzero"/>
</clipPath>
</defs>
<g clip-path="url(#088385f495)">

<path fill="#8c71a0" d="M 374.394531 185.996094 C 374.558594 175.738281 373.417969 165.644531 371.789062 155.714844 C 371.300781 153.269531 370.976562 150.664062 370.324219 148.386719 L 368.53125 141.058594 L 366.414062 133.894531 C 365.761719 131.453125 364.785156 129.175781 363.972656 126.730469 C 360.550781 117.289062 356.316406 108.007812 351.429688 98.890625 C 346.382812 89.9375 340.519531 81.144531 333.839844 72.675781 C 327.164062 64.375 320.160156 56.882812 312.832031 50.046875 C 305.339844 43.371094 297.519531 37.183594 289.214844 31.808594 C 287.097656 30.507812 285.140625 29.042969 283.023438 27.902344 C 280.90625 26.601562 278.789062 25.460938 276.671875 24.15625 C 274.390625 23.019531 272.273438 21.878906 269.996094 20.738281 C 267.878906 19.597656 265.433594 18.621094 263.152344 17.644531 C 254.035156 13.574219 244.425781 10.15625 234.324219 7.550781 C 223.902344 4.621094 213.316406 2.992188 202.890625 2.015625 C 197.679688 1.527344 192.46875 1.363281 187.253906 1.363281 C 184.648438 1.363281 182.042969 1.527344 179.601562 1.527344 C 176.996094 1.527344 174.550781 1.851562 171.945312 2.015625 C 161.683594 2.828125 151.585938 4.457031 141.8125 6.898438 C 132.042969 9.339844 122.269531 12.597656 112.984375 16.667969 C 103.703125 20.574219 94.746094 25.460938 86.113281 30.996094 C 77.480469 36.53125 69.335938 42.71875 61.679688 49.71875 C 46.535156 63.722656 33.179688 80.492188 22.917969 99.867188 C 21.941406 101.820312 19.660156 105.730469 17.054688 111.753906 C 14.285156 117.777344 11.191406 125.753906 8.257812 135.851562 C 5.328125 145.78125 2.722656 157.828125 1.582031 171.34375 C 0.441406 184.855469 0.605469 200 2.882812 216.117188 C 5.492188 232.074219 10.050781 249.167969 17.707031 265.613281 C 25.199219 282.222656 35.785156 298.503906 48.976562 313.15625 C 55.65625 320.484375 62.820312 327.320312 70.640625 333.671875 C 72.59375 335.136719 74.546875 336.765625 76.664062 338.230469 C 78.78125 339.695312 80.738281 341.160156 82.855469 342.625 C 84.972656 343.929688 87.089844 345.394531 89.207031 346.695312 C 91.324219 348.160156 93.605469 349.300781 95.882812 350.605469 C 104.84375 355.652344 114.125 360.046875 123.898438 363.464844 C 133.671875 367.046875 143.605469 369.652344 153.867188 371.605469 C 163.964844 373.5625 174.390625 374.539062 184.648438 374.699219 C 194.910156 374.863281 205.171875 374.375 215.105469 372.746094 C 225.042969 371.28125 234.976562 369.003906 244.425781 366.070312 C 253.871094 363.140625 262.992188 359.394531 271.625 355 C 280.253906 350.765625 288.398438 345.882812 295.890625 340.507812 C 299.636719 337.90625 303.222656 334.972656 306.804688 332.207031 C 310.222656 329.273438 313.644531 326.507812 316.738281 323.414062 C 329.605469 311.367188 339.703125 298.175781 347.847656 285.152344 C 355.828125 272.125 361.527344 259.101562 365.4375 247.378906 C 369.347656 235.492188 371.628906 224.910156 372.929688 215.957031 C 374.070312 207 374.558594 200 374.558594 195.113281 C 374.558594 190.230469 374.558594 187.460938 374.394531 187.300781 C 374.394531 187.136719 374.234375 188.601562 374.070312 191.371094 C 374.070312 192.671875 373.90625 194.300781 373.90625 196.253906 C 373.746094 198.207031 373.582031 200.324219 373.417969 202.605469 C 372.605469 211.882812 370.648438 224.421875 367.230469 236.632812 C 363.808594 249.007812 358.921875 260.890625 354.363281 269.847656 C 353.222656 272.125 352.082031 274.082031 351.105469 276.035156 C 350.128906 277.824219 349.152344 279.453125 348.335938 280.917969 C 346.707031 283.6875 345.566406 285.476562 345.242188 285.964844 C 338.5625 296.222656 328.304688 309.898438 312.992188 323.738281 C 297.847656 337.414062 277.488281 350.929688 252.894531 360.046875 C 228.460938 369.328125 199.632812 373.398438 170.316406 370.628906 C 155.660156 369.328125 141 365.910156 126.832031 360.863281 C 112.660156 355.976562 99.140625 348.976562 86.601562 340.671875 C 74.058594 332.367188 62.660156 322.4375 52.722656 311.527344 C 42.789062 300.621094 34.320312 288.734375 27.476562 276.195312 C 13.632812 251.285156 6.792969 224.585938 5.164062 200.488281 C 3.535156 176.226562 6.628906 154.738281 11.515625 137.804688 C 16.238281 120.707031 22.265625 108.332031 26.339844 100.679688 C 40.996094 73.003906 62.660156 49.71875 87.902344 33.277344 C 89.53125 32.296875 91 31.160156 92.625 30.183594 L 97.511719 27.414062 L 99.957031 25.949219 L 102.398438 24.644531 L 107.449219 22.042969 C 114.289062 18.785156 121.128906 15.855469 128.132812 13.410156 C 142.304688 8.527344 156.960938 5.269531 171.78125 3.96875 C 186.605469 2.667969 201.589844 2.992188 216.410156 5.269531 C 231.230469 7.550781 245.890625 11.621094 259.898438 17.484375 C 287.910156 29.367188 313.644531 48.253906 333.515625 73.492188 C 340.03125 81.792969 345.894531 90.425781 350.78125 99.214844 C 355.664062 108.171875 359.898438 117.289062 363.320312 126.570312 C 364.136719 129.011719 365.113281 131.289062 365.761719 133.570312 L 367.882812 140.734375 C 369.019531 145.617188 370.324219 150.503906 371.136719 155.386719 C 372.929688 165.320312 373.90625 175.414062 373.90625 185.671875 C 373.90625 186.648438 374.070312 187.300781 374.070312 187.460938 C 374.394531 187.625 374.394531 186.972656 374.394531 185.996094 Z M 374.394531 185.996094 " fill-opacity="1" fill-rule="nonzero"/>
</g>
<path fill="#8c71a0" d="M 370.976562 185.996094 C 371.136719 175.902344 370 165.96875 368.371094 156.203125 C 367.882812 153.757812 367.554688 151.316406 366.902344 148.875 L 365.113281 141.710938 L 362.996094 134.546875 C 362.34375 132.105469 361.367188 129.824219 360.550781 127.546875 C 357.132812 118.265625 353.058594 109.148438 348.171875 100.355469 C 343.289062 91.5625 337.425781 82.933594 330.910156 74.628906 C 324.394531 66.488281 317.554688 59.164062 310.222656 52.488281 C 302.894531 45.8125 295.238281 39.949219 287.097656 34.578125 C 284.980469 33.277344 283.023438 31.972656 280.90625 30.671875 L 274.554688 27.089844 C 272.4375 25.949219 270.15625 24.808594 268.039062 23.667969 C 265.921875 22.53125 263.644531 21.554688 261.363281 20.574219 C 252.40625 16.667969 242.957031 13.25 233.023438 10.644531 C 222.761719 8.039062 212.5 6.410156 202.402344 5.433594 C 197.355469 4.945312 192.140625 4.78125 187.09375 4.78125 C 184.488281 4.78125 182.042969 4.945312 179.4375 4.945312 C 176.832031 4.945312 174.390625 5.269531 171.945312 5.433594 C 162.171875 6.25 152.402344 7.875 142.628906 10.320312 C 133.019531 12.761719 123.574219 15.855469 114.453125 19.925781 C 105.332031 23.832031 96.535156 28.554688 88.066406 34.089844 C 79.597656 39.460938 71.617188 45.648438 64.125 52.488281 C 49.140625 66.164062 36.109375 82.609375 26.011719 101.496094 C 25.035156 103.449219 22.917969 107.355469 20.3125 113.21875 C 17.707031 119.078125 14.449219 127.058594 11.679688 136.828125 C 8.746094 146.59375 6.304688 158.316406 5.164062 171.667969 C 4.023438 185.019531 4.1875 199.835938 6.46875 215.628906 C 8.910156 231.421875 13.472656 248.03125 20.964844 264.3125 C 28.292969 280.59375 38.714844 296.550781 51.582031 310.875 C 58.097656 318.039062 65.265625 324.714844 72.917969 330.902344 C 74.875 332.367188 76.828125 333.996094 78.78125 335.460938 C 80.738281 336.925781 82.855469 338.394531 84.808594 339.859375 C 86.925781 341.160156 89.042969 342.625 91.160156 343.929688 C 93.277344 345.230469 95.558594 346.535156 97.675781 347.671875 C 106.472656 352.558594 115.59375 356.792969 125.203125 360.371094 C 134.648438 363.792969 144.582031 366.398438 154.519531 368.351562 C 164.453125 370.140625 174.550781 371.28125 184.648438 371.445312 C 194.746094 371.605469 204.683594 371.117188 214.617188 369.652344 C 224.390625 368.1875 234 365.910156 243.285156 363.140625 C 252.566406 360.210938 261.527344 356.464844 269.832031 352.394531 C 278.300781 348.324219 286.28125 343.441406 293.609375 338.230469 C 297.355469 335.625 300.777344 332.855469 304.359375 330.089844 C 307.78125 327.160156 311.039062 324.390625 314.132812 321.460938 C 326.675781 309.574219 336.773438 296.550781 344.589844 283.847656 C 352.40625 270.988281 357.945312 258.289062 361.855469 246.726562 C 365.765625 235.167969 367.882812 224.585938 369.183594 215.957031 C 370.324219 207.164062 370.8125 200.324219 370.8125 195.441406 C 370.8125 190.71875 370.8125 187.949219 370.648438 187.789062 C 370.648438 187.625 370.488281 189.089844 370.324219 191.695312 C 370.324219 193 370.160156 194.625 370.160156 196.417969 C 370 198.207031 369.835938 200.324219 369.671875 202.605469 C 368.859375 211.722656 367.066406 223.933594 363.644531 235.980469 C 360.390625 248.03125 355.503906 259.753906 351.105469 268.542969 C 349.964844 270.660156 348.988281 272.777344 348.011719 274.570312 C 347.035156 276.359375 346.054688 277.988281 345.242188 279.289062 C 343.777344 282.058594 342.472656 283.6875 342.148438 284.175781 C 335.632812 294.269531 325.535156 307.785156 310.550781 321.296875 C 295.566406 334.648438 275.859375 348 251.589844 356.953125 C 227.484375 366.070312 199.308594 369.980469 170.644531 367.210938 C 156.308594 365.910156 141.976562 362.488281 127.96875 357.605469 C 113.964844 352.71875 100.769531 345.882812 88.390625 337.742188 C 76.015625 329.601562 64.9375 319.832031 55.167969 309.25 C 45.394531 298.503906 37.085938 286.78125 30.410156 274.730469 C 16.890625 250.308594 10.214844 224.257812 8.585938 200.488281 C 6.957031 176.714844 10.050781 155.550781 14.773438 138.941406 C 19.496094 122.171875 25.359375 109.960938 29.269531 102.636719 C 43.929688 75.121094 65.101562 52.324219 89.859375 36.207031 C 91.488281 35.230469 92.953125 34.253906 94.582031 33.277344 L 99.304688 30.507812 L 101.746094 29.042969 L 104.191406 27.738281 L 109.078125 25.136719 C 115.753906 22.042969 122.433594 18.949219 129.4375 16.667969 C 143.28125 11.785156 157.613281 8.691406 172.273438 7.386719 C 186.765625 6.085938 201.589844 6.410156 216.085938 8.691406 C 230.578125 10.96875 244.914062 14.878906 258.757812 20.738281 C 286.28125 32.296875 311.527344 50.859375 331.070312 75.609375 C 337.585938 83.75 343.125 92.214844 348.011719 100.84375 C 352.898438 109.636719 356.96875 118.589844 360.226562 127.707031 C 361.039062 129.988281 361.855469 132.269531 362.667969 134.710938 L 364.785156 141.710938 C 365.925781 146.433594 367.230469 151.15625 367.882812 156.039062 C 369.511719 165.644531 370.648438 175.578125 370.488281 185.671875 C 370.488281 186.484375 370.648438 187.300781 370.648438 187.300781 C 370.8125 187.625 370.976562 186.972656 370.976562 185.996094 Z M 370.976562 185.996094 " fill-opacity="1" fill-rule="nonzero"/>
<path fill="#8c71a0" d="M 367.390625 185.996094 C 367.554688 176.066406 366.414062 166.296875 364.785156 156.851562 C 364.296875 154.410156 363.972656 152.132812 363.320312 149.6875 L 361.691406 142.6875 L 359.574219 135.6875 C 358.921875 133.40625 357.945312 131.128906 357.292969 128.847656 C 354.035156 119.730469 349.964844 110.777344 345.242188 102.148438 C 340.355469 93.515625 334.816406 85.050781 328.304688 76.910156 C 321.949219 68.933594 315.109375 61.769531 307.945312 55.09375 C 300.777344 48.582031 293.121094 42.71875 285.140625 37.507812 C 283.1875 36.207031 281.234375 34.902344 279.117188 33.765625 L 272.925781 30.183594 C 270.808594 29.042969 268.691406 28.066406 266.574219 26.925781 C 264.457031 25.785156 262.175781 24.972656 260.058594 23.832031 C 251.265625 19.925781 241.980469 16.667969 232.207031 14.0625 C 222.273438 11.457031 212.175781 9.828125 202.078125 9.015625 C 197.027344 8.527344 192.140625 8.363281 187.09375 8.363281 C 184.648438 8.363281 182.042969 8.527344 179.601562 8.527344 C 177.15625 8.527344 174.714844 8.851562 172.269531 9.015625 C 162.5 9.828125 152.726562 11.296875 143.28125 13.738281 C 133.832031 16.179688 124.550781 19.273438 115.59375 23.179688 C 106.632812 26.925781 98 31.648438 89.695312 37.019531 C 81.390625 42.394531 73.570312 48.417969 66.242188 55.09375 C 51.582031 68.605469 38.714844 84.726562 28.945312 103.285156 C 27.964844 105.242188 25.847656 108.984375 23.40625 114.847656 C 20.800781 120.546875 17.707031 128.359375 14.9375 137.964844 C 12.167969 147.574219 9.726562 159.132812 8.585938 172.15625 C 7.445312 185.183594 7.609375 199.835938 9.886719 215.304688 C 12.332031 230.769531 16.726562 247.054688 24.21875 263.007812 C 31.550781 278.964844 41.648438 294.59375 54.351562 308.761719 C 60.703125 315.761719 67.707031 322.4375 75.199219 328.460938 C 77.152344 329.925781 78.945312 331.554688 80.898438 332.855469 C 82.855469 334.324219 84.808594 335.625 86.925781 337.089844 C 89.042969 338.394531 91 339.695312 93.117188 340.996094 C 95.234375 342.300781 97.351562 343.441406 99.46875 344.742188 C 108.101562 349.628906 117.058594 353.699219 126.339844 357.117188 C 135.625 360.535156 145.398438 363.140625 155.167969 364.933594 C 164.941406 366.722656 174.878906 367.863281 184.8125 367.863281 C 194.746094 368.023438 204.519531 367.535156 214.128906 366.070312 C 223.738281 364.605469 233.1875 362.488281 242.304688 359.558594 C 251.425781 356.628906 260.058594 353.046875 268.367188 348.976562 C 276.671875 344.90625 284.492188 340.183594 291.65625 334.972656 C 295.402344 332.53125 298.824219 329.761719 302.242188 326.996094 C 305.5 324.226562 308.921875 321.460938 311.851562 318.53125 C 324.230469 306.96875 334.003906 294.105469 341.820312 281.570312 C 349.476562 269.035156 354.851562 256.496094 358.761719 245.097656 C 362.507812 233.703125 364.625 223.445312 365.925781 214.976562 C 367.066406 206.347656 367.554688 199.671875 367.554688 194.953125 C 367.554688 190.230469 367.554688 187.625 367.390625 187.460938 C 367.390625 187.300781 367.230469 188.765625 367.066406 191.371094 C 367.066406 192.671875 366.902344 194.300781 366.902344 196.089844 C 366.742188 197.882812 366.578125 200 366.414062 202.117188 C 365.601562 211.070312 363.808594 223.117188 360.390625 234.84375 C 357.132812 246.726562 352.40625 258.289062 348.011719 266.917969 C 346.871094 269.035156 345.894531 270.988281 344.917969 272.777344 C 343.9375 274.570312 342.960938 276.035156 342.148438 277.5 C 340.679688 280.265625 339.542969 281.894531 339.214844 282.382812 C 332.699219 292.316406 322.929688 305.503906 308.269531 318.691406 C 293.609375 331.878906 274.230469 344.90625 250.449219 353.699219 C 226.832031 362.652344 199.144531 366.558594 170.96875 363.792969 C 156.960938 362.488281 142.792969 359.234375 129.109375 354.511719 C 115.429688 349.789062 102.398438 343.113281 90.347656 335.136719 C 78.292969 327.160156 67.382812 317.550781 57.773438 307.132812 C 48.164062 296.710938 40.019531 285.152344 33.339844 273.265625 C 19.984375 249.332031 13.472656 223.769531 11.84375 200.488281 C 10.214844 177.203125 13.308594 156.363281 17.867188 140.082031 C 22.429688 123.636719 28.292969 111.753906 32.039062 104.425781 C 46.371094 77.398438 67.054688 55.09375 91.488281 39.136719 C 92.953125 38.160156 94.582031 37.183594 96.046875 36.207031 L 100.769531 33.4375 L 103.050781 32.136719 L 105.492188 30.832031 L 110.378906 28.390625 C 116.894531 25.296875 123.574219 22.367188 130.414062 20.085938 C 143.933594 15.367188 158.101562 12.273438 172.433594 11.132812 C 186.765625 9.832031 201.101562 10.15625 215.433594 12.433594 C 229.765625 14.714844 243.773438 18.621094 257.289062 24.15625 C 284.164062 35.554688 309.085938 53.789062 328.140625 78.050781 C 334.492188 86.027344 340.03125 94.332031 344.753906 102.796875 C 349.476562 111.425781 353.546875 120.21875 356.804688 129.175781 C 357.621094 131.453125 358.433594 133.734375 359.085938 136.011719 L 361.203125 142.851562 C 362.34375 147.574219 363.484375 152.132812 364.296875 157.015625 C 365.925781 166.460938 367.066406 176.226562 366.902344 186.160156 C 366.902344 186.972656 367.066406 187.789062 367.066406 187.789062 C 367.390625 187.625 367.390625 186.972656 367.390625 185.996094 Z M 367.390625 185.996094 " fill-opacity="1" fill-rule="nonzero"/>
<path fill="#8c71a0" d="M 363.972656 185.996094 C 364.136719 176.226562 362.996094 166.785156 361.527344 157.339844 C 361.039062 155.0625 360.714844 152.621094 360.226562 150.339844 L 358.597656 143.503906 L 356.644531 136.664062 C 355.992188 134.382812 355.175781 132.105469 354.363281 129.988281 C 351.105469 121.035156 347.195312 112.242188 342.472656 103.773438 C 337.75 95.308594 332.210938 87.003906 325.859375 79.027344 C 319.671875 71.210938 312.992188 64.046875 305.988281 57.699219 C 298.984375 51.347656 291.492188 45.648438 283.675781 40.441406 C 281.722656 39.136719 279.765625 37.835938 277.8125 36.695312 L 271.785156 33.277344 C 269.667969 32.136719 267.550781 31.160156 265.597656 30.019531 C 263.480469 28.878906 261.363281 28.066406 259.246094 27.089844 C 250.613281 23.179688 241.492188 20.085938 232.046875 17.484375 C 222.273438 15.039062 212.339844 13.410156 202.566406 12.597656 C 197.679688 12.109375 192.792969 12.109375 187.90625 11.945312 C 185.464844 11.945312 183.019531 12.109375 180.578125 12.109375 C 178.136719 12.109375 175.691406 12.433594 173.25 12.597656 C 163.640625 13.410156 154.03125 14.878906 144.746094 17.15625 C 135.460938 19.4375 126.339844 22.53125 117.546875 26.4375 C 108.75 30.183594 100.28125 34.742188 92.136719 39.949219 C 83.996094 45.160156 76.339844 51.023438 69.171875 57.699219 C 54.675781 70.886719 42.300781 86.679688 32.527344 104.914062 C 31.710938 106.707031 29.433594 110.449219 26.988281 116.148438 C 24.382812 121.847656 21.453125 129.5 18.683594 138.941406 C 15.589844 148.222656 13.144531 159.457031 12.003906 172.320312 C 10.863281 185.183594 11.027344 199.511719 13.308594 214.652344 C 15.75 229.792969 19.984375 245.75 27.316406 261.378906 C 34.480469 277.011719 44.417969 292.316406 56.796875 306.15625 C 62.984375 312.992188 69.988281 319.507812 77.316406 325.53125 C 79.269531 326.996094 81.0625 328.460938 83.015625 329.925781 C 84.972656 331.390625 86.925781 332.695312 88.882812 334.160156 C 90.835938 335.460938 92.953125 336.765625 94.90625 338.066406 C 96.863281 339.371094 99.140625 340.507812 101.097656 341.8125 C 109.566406 346.535156 118.359375 350.605469 127.480469 354.023438 C 136.601562 357.441406 146.050781 359.882812 155.660156 361.675781 C 165.269531 363.464844 175.039062 364.441406 184.648438 364.605469 C 194.257812 364.769531 204.03125 364.28125 213.476562 362.816406 C 222.925781 361.351562 232.207031 359.234375 241.167969 356.464844 C 250.125 353.699219 258.59375 350.117188 266.738281 346.046875 C 274.882812 342.136719 282.535156 337.414062 289.703125 332.367188 C 293.285156 329.925781 296.707031 327.160156 299.964844 324.554688 C 303.222656 321.785156 306.476562 319.179688 309.410156 316.25 C 321.460938 304.851562 331.070312 292.316406 338.726562 280.105469 C 346.21875 267.730469 351.59375 255.519531 355.339844 244.449219 C 359.085938 233.375 361.203125 223.28125 362.34375 214.816406 C 363.484375 206.347656 363.808594 199.671875 363.972656 195.113281 C 363.972656 190.554688 363.972656 187.949219 363.808594 187.789062 C 363.808594 187.625 363.644531 189.089844 363.484375 191.53125 C 363.484375 192.835938 363.320312 194.300781 363.320312 196.089844 C 363.15625 197.882812 362.996094 199.835938 362.832031 202.117188 C 362.019531 210.90625 360.226562 222.628906 356.96875 234.191406 C 353.710938 245.75 349.152344 257.148438 344.917969 265.613281 C 343.777344 267.730469 342.796875 269.683594 341.820312 271.476562 C 340.84375 273.265625 339.867188 274.730469 339.214844 276.035156 C 337.75 278.640625 336.609375 280.265625 336.285156 280.757812 C 329.933594 290.363281 320.324219 303.386719 305.828125 316.414062 C 291.492188 329.273438 272.4375 342.136719 249.148438 350.605469 C 226.019531 359.234375 198.820312 363.140625 171.292969 360.535156 C 157.449219 359.234375 143.605469 355.976562 130.25 351.417969 C 116.894531 346.695312 104.191406 340.183594 92.300781 332.367188 C 80.410156 324.554688 69.824219 315.109375 60.378906 304.851562 C 50.929688 294.59375 42.949219 283.199219 36.4375 271.636719 C 23.40625 248.191406 16.890625 223.117188 15.425781 200.324219 C 13.796875 177.53125 16.890625 157.015625 21.453125 141.058594 C 25.847656 124.941406 31.550781 113.21875 35.457031 106.054688 C 49.464844 79.515625 69.660156 57.535156 93.605469 41.90625 C 95.070312 40.929688 96.535156 39.949219 98.164062 38.972656 L 102.726562 36.367188 L 105.003906 35.066406 L 107.449219 33.765625 L 112.171875 31.320312 C 118.523438 28.226562 125.039062 25.460938 131.714844 23.179688 C 145.070312 18.621094 158.914062 15.527344 172.921875 14.390625 C 186.929688 13.085938 201.101562 13.410156 215.105469 15.691406 C 229.113281 17.808594 242.796875 21.714844 256.152344 27.25 C 282.535156 38.484375 306.804688 56.234375 325.695312 80.003906 C 331.886719 87.820312 337.261719 95.960938 341.984375 104.261719 C 346.707031 112.566406 350.617188 121.195312 353.875 130.152344 C 354.6875 132.429688 355.503906 134.546875 356.152344 136.828125 L 358.109375 143.664062 C 359.25 148.222656 360.390625 152.78125 361.203125 157.503906 C 362.832031 166.785156 363.808594 176.390625 363.808594 186.160156 C 363.808594 186.972656 363.972656 187.625 363.972656 187.789062 C 363.972656 187.625 363.972656 186.972656 363.972656 185.996094 Z M 363.972656 185.996094 " fill-opacity="1" fill-rule="nonzero"/>
<path fill="#8c71a0" d="M 360.390625 185.996094 C 360.550781 176.390625 359.574219 167.109375 357.945312 157.828125 C 357.457031 155.550781 357.132812 153.269531 356.644531 150.992188 L 355.015625 144.152344 L 353.058594 137.476562 C 352.40625 135.199219 351.59375 133.082031 350.78125 130.800781 C 347.683594 122.011719 343.777344 113.542969 339.214844 105.078125 C 334.492188 96.773438 329.117188 88.632812 322.929688 80.816406 C 316.902344 73.164062 310.222656 66.164062 303.382812 59.816406 C 296.378906 53.628906 289.214844 47.929688 281.558594 43.042969 C 279.605469 41.90625 277.8125 40.441406 275.695312 39.460938 L 269.832031 36.042969 C 267.878906 35.066406 265.761719 33.925781 263.644531 32.949219 C 261.6875 31.808594 259.40625 30.996094 257.453125 30.019531 C 248.984375 26.273438 240.1875 23.019531 230.742188 20.574219 C 221.132812 18.132812 211.523438 16.503906 201.75 15.691406 C 196.863281 15.203125 192.140625 15.203125 187.417969 15.039062 C 184.976562 15.039062 182.695312 15.203125 180.253906 15.203125 C 177.808594 15.203125 175.527344 15.527344 173.085938 15.691406 C 163.640625 16.503906 154.355469 17.972656 145.234375 20.25 C 136.113281 22.691406 127.15625 25.785156 118.6875 29.367188 C 110.054688 33.113281 101.746094 37.507812 93.765625 42.71875 C 85.785156 47.765625 78.292969 53.628906 71.128906 60.140625 C 56.957031 73.003906 44.742188 88.632812 35.296875 106.378906 C 34.480469 108.171875 32.363281 111.914062 29.921875 117.453125 C 27.316406 122.988281 24.382812 130.476562 21.777344 139.757812 C 19.007812 149.039062 16.726562 160.109375 15.589844 172.644531 C 14.449219 185.183594 14.609375 199.347656 16.890625 214.164062 C 19.171875 228.980469 23.570312 244.609375 30.574219 260.078125 C 37.574219 275.546875 47.347656 290.523438 59.402344 304.039062 C 65.589844 310.714844 72.269531 317.0625 79.597656 322.925781 C 81.390625 324.390625 83.179688 325.855469 85.136719 327.160156 C 87.089844 328.460938 88.882812 329.925781 90.835938 331.230469 C 92.789062 332.53125 94.746094 333.835938 96.699219 335.136719 C 98.652344 336.4375 100.769531 337.578125 102.886719 338.71875 C 111.195312 343.441406 119.828125 347.347656 128.785156 350.765625 C 137.742188 354.023438 147.027344 356.464844 156.472656 358.257812 C 165.917969 360.046875 175.367188 361.023438 184.976562 361.1875 C 194.421875 361.351562 204.03125 360.863281 213.152344 359.394531 C 222.4375 357.929688 231.558594 355.976562 240.1875 353.210938 C 248.984375 350.441406 257.289062 347.023438 265.273438 342.953125 C 273.253906 339.042969 280.746094 334.484375 287.746094 329.601562 C 291.332031 327.160156 294.589844 324.554688 297.847656 321.949219 C 300.941406 319.179688 304.199219 316.574219 307.128906 313.808594 C 319.019531 302.734375 328.464844 290.363281 335.957031 278.3125 C 343.289062 266.265625 348.5 254.21875 352.246094 243.308594 C 355.828125 232.398438 357.945312 222.46875 359.085938 214.328125 C 360.226562 206.023438 360.550781 199.511719 360.550781 194.953125 C 360.550781 190.394531 360.550781 187.949219 360.390625 187.789062 C 360.390625 187.625 360.226562 189.089844 360.0625 191.53125 C 360.0625 192.835938 359.898438 194.300781 359.898438 196.089844 C 359.738281 197.882812 359.574219 199.835938 359.410156 201.953125 C 358.597656 210.582031 356.804688 222.140625 353.710938 233.375 C 350.617188 244.773438 346.054688 255.84375 341.820312 264.148438 C 340.679688 266.265625 339.703125 268.054688 338.890625 269.847656 C 337.914062 271.476562 337.097656 273.105469 336.285156 274.242188 C 334.816406 276.847656 333.679688 278.476562 333.351562 278.964844 C 327.164062 288.410156 317.714844 301.109375 303.546875 313.808594 C 289.539062 326.507812 270.808594 339.042969 248.007812 347.347656 C 225.367188 355.8125 198.820312 359.722656 171.621094 357.117188 C 158.101562 355.8125 144.582031 352.71875 131.554688 348.160156 C 118.359375 343.601562 105.980469 337.089844 94.253906 329.4375 C 82.691406 321.785156 72.105469 312.503906 62.820312 302.574219 C 53.539062 292.480469 45.882812 281.40625 39.367188 270.011719 C 26.664062 246.726562 20.472656 222.140625 18.847656 199.835938 C 17.378906 177.53125 20.148438 157.503906 24.710938 141.875 C 29.105469 126.082031 34.644531 114.683594 38.390625 107.683594 C 52.070312 81.792969 72.105469 60.304688 95.558594 45 L 99.957031 42.230469 L 104.515625 39.625 L 106.796875 38.324219 L 109.078125 37.183594 L 113.636719 34.742188 C 119.828125 31.808594 126.179688 29.042969 132.855469 26.761719 C 145.886719 22.203125 159.40625 19.273438 173.25 18.132812 C 186.929688 16.992188 200.9375 17.320312 214.617188 19.273438 C 228.300781 21.390625 241.816406 25.136719 254.847656 30.507812 C 280.746094 41.417969 304.523438 58.835938 322.929688 82.285156 C 328.953125 89.9375 334.328125 97.914062 338.890625 106.054688 C 343.449219 114.195312 347.359375 122.660156 350.453125 131.453125 C 351.269531 133.570312 352.082031 135.851562 352.734375 137.964844 L 354.6875 144.640625 C 355.828125 149.199219 356.96875 153.597656 357.621094 158.15625 C 359.25 167.273438 360.226562 176.554688 360.226562 186.160156 C 360.226562 186.972656 360.390625 187.625 360.390625 187.789062 C 360.390625 187.625 360.550781 186.972656 360.390625 185.996094 Z M 360.390625 185.996094 " fill-opacity="1" fill-rule="nonzero"/>
<path stroke-linecap="round" transform="matrix(-2.409491, -8.688717, 8.6727, -2.405049, 177.844915, 314.847488)" fill="none" stroke-linejoin="miter" d="M 0.499904 0.0000256877 L 14.306392 0.000139041 " stroke="#8c71a0" stroke-width="1" stroke-opacity="1" stroke-miterlimit="4"/>
<path stroke-linecap="round" transform="matrix(-2.405368, -8.673848, 8.6727, -2.405049, 152.97496, 298.51668)" fill="none" stroke-linejoin="miter" d="M 0.499973 0.000126363 L 9.332237 -0.000017697 " stroke="#191b19" stroke-width="1" stroke-opacity="1" stroke-miterlimit="4"/>
<path stroke-linecap="round" transform="matrix(2.405368, 8.673848, -8.6727, 2.405049, 166.9808, 202.804967)" fill="none" stroke-linejoin="miter" d="M 0.499868 -0.0000493538 L 9.33255 -0.0000774297 " stroke="#191b19" stroke-width="1" stroke-opacity="1" stroke-miterlimit="4"/>
<path stroke-linecap="round" transform="matrix(2.405368, 8.673848, -8.6727, 2.405049, 204.608223, 192.370418)" fill="none" stroke-linejoin="miter" d="M 0.500014 -0.000179791 L 9.332162 0.0000943922 " stroke="#191b19" stroke-width="1" stroke-opacity="1" stroke-miterlimit="4"/>
<path stroke-linecap="round" transform="matrix(2.405368, 8.673848, -8.6727, 2.405049, 242.235663, 181.935838)" fill="none" stroke-linejoin="miter" d="M 0.500047 0.00011074 L 9.332312 -0.0000333202 " stroke="#191b19" stroke-width="1" stroke-opacity="1" stroke-miterlimit="4"/>
<path stroke-linecap="round" transform="matrix(-2.231222, -8.866425, 8.727886, -2.196359, 124.988492, 271.852043)" fill="none" stroke-linejoin="miter" d="M 0.500139 -0.000169221 L 1.961942 -0.00018198 " stroke="#191b19" stroke-width="1" stroke-opacity="1" stroke-miterlimit="4"/>
<path stroke-linecap="round" transform="matrix(2.39152, 8.623912, -8.6727, 2.405049, 191.822248, 219.131383)" fill="none" stroke-linejoin="miter" d="M 0.499837 -0.000220507 L 4.361274 -0.00018274 " stroke="#191b19" stroke-width="1" stroke-opacity="1" stroke-miterlimit="4"/>
<path stroke-linecap="round" transform="matrix(2.39152, 8.623912, -8.6727, 2.405049, 229.449657, 208.696832)" fill="none" stroke-linejoin="miter" d="M 0.499869 0.0000658287 L 4.361305 0.000103596 " stroke="#191b19" stroke-width="1" stroke-opacity="1" stroke-miterlimit="4"/>
<path stroke-linecap="round" transform="matrix(2.39152, 8.623912, -8.6727, 2.405049, 267.077097, 198.262266)" fill="none" stroke-linejoin="miter" d="M 0.500017 -0.0000623113 L 4.361033 -0.000140529 " stroke="#191b19" stroke-width="1" stroke-opacity="1" stroke-miterlimit="4"/>
<path stroke-linecap="round" transform="matrix(2.167219, 8.825952, -8.740355, 2.146201, 289.216099, 203.649918)" fill="none" stroke-linejoin="miter" d="M 0.499986 -0.000126156 L 1.894085 0.0000782617 " stroke="#191b19" stroke-width="1" stroke-opacity="1" stroke-miterlimit="4"/>
<g fill="#8c71a0" fill-opacity="1"><g transform="translate(35.126293, 209.714751)"><g><path d="M 6.578125 -10.59375 C 4.390625 -11.5 2.425781 -12.832031 0.6875 -14.59375 C -1.039062 -16.363281 -2.546875 -18.328125 -3.828125 -20.484375 C -5.109375 -22.648438 -6.191406 -24.945312 -7.078125 -27.375 C -7.972656 -29.8125 -8.695312 -32.175781 -9.25 -34.46875 C -9.144531 -36.320312 -8.867188 -38.066406 -8.421875 -39.703125 C -7.984375 -41.335938 -7.429688 -42.9375 -6.765625 -44.5 C -6.109375 -46.070312 -5.382812 -47.59375 -4.59375 -49.0625 C -3.800781 -50.53125 -3.03125 -52.007812 -2.28125 -53.5 C -1.90625 -53.59375 -1.53125 -53.585938 -1.15625 -53.484375 C -1.09375 -54.242188 -0.875 -54.941406 -0.5 -55.578125 C -0.132812 -56.222656 0.273438 -56.828125 0.734375 -57.390625 C 1.191406 -57.953125 1.648438 -58.515625 2.109375 -59.078125 C 2.566406 -59.640625 2.910156 -60.253906 3.140625 -60.921875 C 4.597656 -61.734375 5.851562 -62.648438 6.90625 -63.671875 C 7.957031 -64.691406 8.9375 -65.765625 9.84375 -66.890625 C 10.757812 -68.015625 11.722656 -69.085938 12.734375 -70.109375 C 13.753906 -71.128906 15.003906 -72.03125 16.484375 -72.8125 C 16.890625 -73.601562 17.457031 -74.332031 18.1875 -75 C 18.914062 -75.675781 19.648438 -76.316406 20.390625 -76.921875 C 21.140625 -77.535156 21.851562 -78.164062 22.53125 -78.8125 C 23.207031 -79.46875 23.691406 -80.238281 23.984375 -81.125 C 24.503906 -80.726562 25.085938 -80.703125 25.734375 -81.046875 C 26.390625 -81.390625 26.972656 -81.726562 27.484375 -82.0625 C 27.847656 -82.238281 28.179688 -82.265625 28.484375 -82.140625 C 28.785156 -82.015625 29.078125 -81.875 29.359375 -81.71875 C 29.648438 -81.5625 29.882812 -81.46875 30.0625 -81.4375 C 30.238281 -81.414062 30.359375 -81.65625 30.421875 -82.15625 C 30.941406 -82.226562 31.144531 -82.039062 31.03125 -81.59375 C 30.914062 -81.15625 30.835938 -80.867188 30.796875 -80.734375 C 31.398438 -81.023438 31.953125 -81.050781 32.453125 -80.8125 C 32.953125 -80.582031 33.660156 -80.519531 34.578125 -80.625 C 34.984375 -80.394531 35.148438 -80.171875 35.078125 -79.953125 C 35.003906 -79.734375 34.988281 -79.390625 35.03125 -78.921875 C 37.488281 -78.828125 39.234375 -78.125 40.265625 -76.8125 C 41.304688 -75.507812 41.785156 -73.984375 41.703125 -72.234375 C 41.628906 -70.492188 41.097656 -68.765625 40.109375 -67.046875 C 39.117188 -65.328125 37.863281 -64.023438 36.34375 -63.140625 C 34.519531 -62.109375 32.835938 -61.113281 31.296875 -60.15625 C 29.765625 -59.195312 28.304688 -58.195312 26.921875 -57.15625 C 25.546875 -56.113281 24.289062 -54.976562 23.15625 -53.75 C 22.03125 -52.53125 21.117188 -51.222656 20.421875 -49.828125 C 18.785156 -48.847656 17.375 -47.726562 16.1875 -46.46875 C 15.007812 -45.207031 13.945312 -43.867188 13 -42.453125 C 12.0625 -41.046875 11.179688 -39.609375 10.359375 -38.140625 C 9.535156 -36.671875 8.710938 -35.21875 7.890625 -33.78125 C 8.171875 -32.71875 8.195312 -31.847656 7.96875 -31.171875 C 7.738281 -30.503906 7.476562 -29.828125 7.1875 -29.140625 C 7.644531 -27.972656 8.191406 -27.015625 8.828125 -26.265625 C 9.472656 -25.523438 10.132812 -24.769531 10.8125 -24 C 16.257812 -23.84375 21.851562 -24.347656 27.59375 -25.515625 C 33.34375 -26.691406 39 -27.992188 44.5625 -29.421875 C 45.34375 -28.816406 46.179688 -28.28125 47.078125 -27.8125 C 47.984375 -27.34375 48.828125 -26.84375 49.609375 -26.3125 C 50.398438 -25.78125 51.09375 -25.097656 51.6875 -24.265625 C 52.28125 -23.441406 52.648438 -22.378906 52.796875 -21.078125 C 52.015625 -19.710938 51.125 -18.367188 50.125 -17.046875 C 49.132812 -15.734375 48.128906 -14.429688 47.109375 -13.140625 C 46.566406 -12.929688 45.890625 -12.753906 45.078125 -12.609375 C 44.265625 -12.460938 43.429688 -12.273438 42.578125 -12.046875 C 41.734375 -11.816406 40.894531 -11.535156 40.0625 -11.203125 C 39.238281 -10.878906 38.488281 -10.457031 37.8125 -9.9375 C 33.8125 -9 29.613281 -8.394531 25.21875 -8.125 C 20.820312 -7.863281 16.691406 -7.863281 12.828125 -8.125 C 11.921875 -8.75 10.992188 -9.320312 10.046875 -9.84375 C 9.097656 -10.363281 7.941406 -10.613281 6.578125 -10.59375 Z M 6.578125 -10.59375 "/>
</g></g></g><g fill="#8c71a0" fill-opacity="1"><g transform="translate(94.3886, 193.809155)"><g><path d="M 8.890625 -0.953125 C 8.253906 -0.785156 7.242188 -0.617188 5.859375 -0.453125 C 4.566406 -1.265625 3.273438 -2.492188 1.984375 -4.140625 C 0.691406 -5.785156 -0.441406 -7.609375 -1.421875 -9.609375 C -2.398438 -11.617188 -3.15625 -13.679688 -3.6875 -15.796875 C -4.21875 -17.921875 -4.359375 -19.90625 -4.109375 -21.75 C -4.128906 -21.8125 -4.03125 -22.644531 -3.8125 -24.25 C -3.601562 -25.863281 -3.328125 -27.914062 -2.984375 -30.40625 C -2.640625 -32.894531 -2.234375 -35.675781 -1.765625 -38.75 C -1.304688 -41.820312 -0.832031 -44.84375 -0.34375 -47.8125 C 0.144531 -50.789062 0.644531 -53.515625 1.15625 -55.984375 C 1.675781 -58.453125 2.1875 -60.398438 2.6875 -61.828125 C 3.007812 -62.859375 3.300781 -63.847656 3.5625 -64.796875 C 3.820312 -65.742188 4.078125 -66.625 4.328125 -67.4375 C 4.710938 -68.75 5.070312 -69.972656 5.40625 -71.109375 C 5.75 -72.253906 6.175781 -73.320312 6.6875 -74.3125 C 7.207031 -75.300781 7.828125 -76.210938 8.546875 -77.046875 C 9.273438 -77.878906 10.207031 -78.6875 11.34375 -79.46875 C 12.175781 -79.363281 12.921875 -79.210938 13.578125 -79.015625 C 14.242188 -78.816406 14.875 -78.523438 15.46875 -78.140625 L 16.09375 -76.90625 C 16.351562 -76.488281 16.644531 -76.238281 16.96875 -76.15625 C 17.289062 -76.070312 17.546875 -76.050781 17.734375 -76.09375 C 18.609375 -76.125 19.375 -76.109375 20.03125 -76.046875 C 20.6875 -75.992188 21.375 -76.03125 22.09375 -76.15625 C 22.4375 -75.851562 22.769531 -75.535156 23.09375 -75.203125 C 23.425781 -74.878906 23.757812 -74.597656 24.09375 -74.359375 C 25.84375 -72.867188 27.351562 -71.378906 28.625 -69.890625 C 29.90625 -68.410156 30.410156 -66.550781 30.140625 -64.3125 L 30.515625 -63.296875 C 30.941406 -62.941406 31.207031 -62.570312 31.3125 -62.1875 C 31.414062 -61.8125 31.5 -61.257812 31.5625 -60.53125 C 31.632812 -60.007812 31.734375 -59.445312 31.859375 -58.84375 C 31.984375 -58.238281 32.238281 -57.613281 32.625 -56.96875 L 33.46875 -56.390625 C 34.613281 -56.160156 35.660156 -56.171875 36.609375 -56.421875 C 37.867188 -56.765625 38.925781 -57.351562 39.78125 -58.1875 C 40.644531 -59.019531 41.445312 -59.84375 42.1875 -60.65625 C 42.75 -61.34375 43.285156 -61.925781 43.796875 -62.40625 C 44.304688 -62.882812 44.828125 -63.253906 45.359375 -63.515625 C 46.359375 -65.140625 47.273438 -66.585938 48.109375 -67.859375 C 48.941406 -69.140625 49.828125 -70.445312 50.765625 -71.78125 C 52.546875 -74.226562 54.222656 -76.789062 55.796875 -79.46875 C 57.378906 -82.15625 58.378906 -85.253906 58.796875 -88.765625 C 59.367188 -89.390625 60.09375 -89.816406 60.96875 -90.046875 C 61.851562 -90.285156 62.785156 -90.351562 63.765625 -90.25 C 64.742188 -90.144531 65.738281 -89.984375 66.75 -89.765625 C 66.96875 -89.691406 67.160156 -89.644531 67.328125 -89.625 C 67.503906 -89.601562 67.707031 -89.550781 67.9375 -89.46875 C 68.125 -88.78125 68.578125 -88.226562 69.296875 -87.8125 C 69.691406 -87.644531 69.957031 -87.546875 70.09375 -87.515625 C 70.238281 -87.492188 70.375 -87.46875 70.5 -87.4375 C 71.101562 -87.25 71.609375 -87.078125 72.015625 -86.921875 C 72.421875 -86.765625 72.785156 -86.488281 73.109375 -86.09375 C 74.140625 -84.539062 75.4375 -83.46875 77 -82.875 C 77.070312 -82.15625 77.289062 -81.488281 77.65625 -80.875 C 78.019531 -80.257812 78.410156 -79.675781 78.828125 -79.125 C 79.023438 -78.894531 79.1875 -78.675781 79.3125 -78.46875 C 79.4375 -78.269531 79.597656 -78.03125 79.796875 -77.75 L 77.671875 -77.375 L 78.515625 -75.359375 C 79.003906 -74.347656 79.25 -73.128906 79.25 -71.703125 C 79.257812 -70.285156 79.140625 -69.140625 78.890625 -68.265625 C 79.535156 -66.410156 80.003906 -64.925781 80.296875 -63.8125 C 80.597656 -62.707031 80.8125 -61.664062 80.9375 -60.6875 C 81.0625 -59.71875 81.097656 -58.769531 81.046875 -57.84375 C 80.992188 -56.914062 80.867188 -55.914062 80.671875 -54.84375 C 82.210938 -50.113281 82.835938 -45.578125 82.546875 -41.234375 C 82.265625 -36.890625 81.800781 -32.773438 81.15625 -28.890625 C 81.09375 -28.390625 81.015625 -27.925781 80.921875 -27.5 C 80.828125 -27.070312 80.769531 -26.648438 80.75 -26.234375 C 80.113281 -25.859375 79.546875 -25.46875 79.046875 -25.0625 C 78.546875 -24.664062 78.078125 -24.238281 77.640625 -23.78125 C 77.066406 -23.144531 76.46875 -22.59375 75.84375 -22.125 C 75.226562 -21.664062 74.546875 -21.332031 73.796875 -21.125 C 70.171875 -22.519531 67.582031 -25.914062 66.03125 -31.3125 C 64.476562 -36.71875 63.78125 -43.941406 63.9375 -52.984375 C 64.28125 -53.410156 64.335938 -53.9375 64.109375 -54.5625 L 63.84375 -55.609375 L 62.859375 -55.4375 C 62.546875 -55.34375 62.269531 -55.234375 62.03125 -55.109375 C 61.789062 -54.984375 61.675781 -54.648438 61.6875 -54.109375 C 60.070312 -52.117188 58.285156 -50.03125 56.328125 -47.84375 C 54.378906 -45.65625 52.3125 -43.578125 50.125 -41.609375 C 47.945312 -39.640625 45.664062 -37.878906 43.28125 -36.328125 C 40.894531 -34.773438 38.46875 -33.671875 36 -33.015625 C 29.695312 -31.316406 24.070312 -33.253906 19.125 -38.828125 L 17.8125 -40.3125 L 17.265625 -38.515625 C 17.160156 -38.160156 16.992188 -37.460938 16.765625 -36.421875 C 16.535156 -35.378906 16.34375 -34.195312 16.1875 -32.875 C 16.039062 -31.550781 15.960938 -30.207031 15.953125 -28.84375 C 15.941406 -27.488281 16.128906 -26.359375 16.515625 -25.453125 C 15.941406 -24.554688 15.410156 -23.566406 14.921875 -22.484375 C 14.429688 -21.398438 14.179688 -20.25 14.171875 -19.03125 C 14.128906 -18.6875 14.175781 -18.378906 14.3125 -18.109375 C 14.457031 -17.835938 14.640625 -17.5625 14.859375 -17.28125 C 14.898438 -16.820312 14.851562 -16.472656 14.71875 -16.234375 C 14.582031 -15.992188 14.410156 -15.738281 14.203125 -15.46875 C 13.972656 -15.070312 13.742188 -14.660156 13.515625 -14.234375 C 13.296875 -13.804688 13.117188 -13.332031 12.984375 -12.8125 C 12.972656 -12.414062 12.988281 -12 13.03125 -11.5625 C 13.070312 -11.132812 13.101562 -10.753906 13.125 -10.421875 C 13.3125 -9.734375 13.347656 -9.234375 13.234375 -8.921875 C 12.953125 -7.429688 12.6875 -6.195312 12.4375 -5.21875 C 12.195312 -4.238281 11.914062 -3.46875 11.59375 -2.90625 C 11.269531 -2.351562 10.894531 -1.929688 10.46875 -1.640625 C 10.039062 -1.359375 9.515625 -1.128906 8.890625 -0.953125 Z M 8.890625 -0.953125 "/>
</g></g></g><g fill="#8c71a0" fill-opacity="1"><g transform="translate(188.772817, 168.477078)"><g><path d="M -4.859375 -8.34375 L -3.90625 -9.609375 L -4.328125 -11.625 C -3.785156 -15.894531 -3.148438 -20.019531 -2.421875 -24 C -1.703125 -27.988281 -0.925781 -32.085938 -0.09375 -36.296875 C 0.144531 -37.648438 0.40625 -39.003906 0.6875 -40.359375 C 0.96875 -41.722656 1.222656 -43.117188 1.453125 -44.546875 C 1.316406 -44.773438 1.207031 -45.03125 1.125 -45.3125 C 1.050781 -45.601562 1.023438 -45.953125 1.046875 -46.359375 C 1.585938 -47.859375 1.992188 -49.179688 2.265625 -50.328125 C 2.535156 -51.484375 2.78125 -52.671875 3 -53.890625 C 3.21875 -55.296875 3.488281 -56.71875 3.8125 -58.15625 C 4.144531 -59.59375 4.65625 -61.054688 5.34375 -62.546875 L 5.765625 -63.65625 L 6.8125 -63.84375 C 7.039062 -64.03125 7.28125 -64.207031 7.53125 -64.375 C 7.789062 -64.550781 8.140625 -64.695312 8.578125 -64.8125 L 10.359375 -65 C 12.191406 -66.5 13.671875 -68.363281 14.796875 -70.59375 C 15.921875 -72.820312 16.96875 -75.414062 17.9375 -78.375 L 18.625 -80.3125 L 20.421875 -79.765625 C 20.785156 -79.660156 21.335938 -79.609375 22.078125 -79.609375 C 22.816406 -79.609375 23.597656 -79.582031 24.421875 -79.53125 C 25.835938 -79.570312 27.226562 -79.554688 28.59375 -79.484375 C 29.96875 -79.421875 31.097656 -79.128906 31.984375 -78.609375 L 32.6875 -77.890625 C 33 -77.222656 33.28125 -76.617188 33.53125 -76.078125 C 33.78125 -75.535156 34.035156 -75 34.296875 -74.46875 C 34.910156 -73.207031 35.484375 -71.953125 36.015625 -70.703125 C 36.554688 -69.460938 37.070312 -68.066406 37.5625 -66.515625 C 38.21875 -65.335938 38.859375 -64.140625 39.484375 -62.921875 C 40.117188 -61.703125 40.734375 -60.492188 41.328125 -59.296875 C 42.140625 -57.546875 42.957031 -55.882812 43.78125 -54.3125 C 44.601562 -52.75 45.535156 -51.296875 46.578125 -49.953125 C 47.203125 -50.117188 47.585938 -50.191406 47.734375 -50.171875 C 48.398438 -50.679688 49.238281 -51.101562 50.25 -51.4375 L 51.4375 -51.875 L 52.125 -50.828125 C 52.3125 -50.671875 52.519531 -50.523438 52.75 -50.390625 C 52.976562 -50.253906 53.242188 -50.125 53.546875 -50 C 54.585938 -50.207031 55.390625 -50.203125 55.953125 -49.984375 C 56.523438 -49.765625 57.007812 -49.535156 57.40625 -49.296875 C 57.5625 -49.210938 57.753906 -49.113281 57.984375 -49 C 58.222656 -48.894531 58.414062 -48.828125 58.5625 -48.796875 L 60.4375 -48.59375 L 59.96875 -46.546875 C 59.625 -45.023438 58.910156 -43.441406 57.828125 -41.796875 C 56.753906 -40.160156 55.441406 -38.695312 53.890625 -37.40625 C 54.140625 -37 54.328125 -36.609375 54.453125 -36.234375 C 54.585938 -35.867188 54.789062 -35.445312 55.0625 -34.96875 C 55.65625 -33.78125 56.210938 -32.523438 56.734375 -31.203125 C 57.253906 -29.890625 57.613281 -28.484375 57.8125 -26.984375 C 57.625 -25.171875 57.273438 -23.503906 56.765625 -21.984375 C 56.253906 -20.460938 55.554688 -19.023438 54.671875 -17.671875 C 53.785156 -16.316406 52.703125 -15.113281 51.421875 -14.0625 C 50.148438 -13.007812 48.742188 -12.242188 47.203125 -11.765625 C 46.265625 -11.703125 45.550781 -11.742188 45.0625 -11.890625 C 44.582031 -12.046875 44.148438 -12.207031 43.765625 -12.375 C 43.171875 -12.601562 42.691406 -12.738281 42.328125 -12.78125 L 40.96875 -13.015625 L 40.953125 -14.546875 C 41.015625 -15.109375 40.882812 -15.546875 40.5625 -15.859375 C 40.238281 -16.171875 39.640625 -16.550781 38.765625 -17 C 38.460938 -17.125 38.1875 -17.269531 37.9375 -17.4375 C 37.695312 -17.613281 37.410156 -17.796875 37.078125 -17.984375 L 34.609375 -19.640625 L 37.515625 -21.328125 C 39.265625 -22.347656 40.347656 -23.332031 40.765625 -24.28125 C 41.191406 -25.238281 41.070312 -26.710938 40.40625 -28.703125 C 38.75 -28.585938 37.441406 -28.285156 36.484375 -27.796875 C 35.535156 -27.316406 34.59375 -26.8125 33.65625 -26.28125 C 32.289062 -25.519531 30.953125 -24.804688 29.640625 -24.140625 C 28.328125 -23.484375 26.851562 -22.9375 25.21875 -22.5 C 24.15625 -22.207031 22.992188 -21.992188 21.734375 -21.859375 L 20.671875 -21.671875 L 20.125 -22.65625 C 20.082031 -22.78125 19.957031 -22.894531 19.75 -23 C 19.550781 -23.113281 19.375 -23.222656 19.21875 -23.328125 C 18.789062 -23.617188 18.269531 -24.019531 17.65625 -24.53125 C 17.050781 -25.039062 16.75 -25.804688 16.75 -26.828125 C 16.125 -27.390625 15.675781 -28.046875 15.40625 -28.796875 C 15.289062 -28.222656 15.21875 -27.675781 15.1875 -27.15625 C 15.15625 -26.644531 15.132812 -26.148438 15.125 -25.671875 L 15.078125 -24.34375 L 13.90625 -23.828125 C 13.8125 -23.671875 13.75 -23.453125 13.71875 -23.171875 C 13.6875 -22.890625 13.722656 -22.695312 13.828125 -22.59375 L 14.484375 -21.640625 L 13.765625 -20.53125 C 13.691406 -20.320312 13.578125 -20.125 13.421875 -19.9375 C 13.273438 -19.757812 13.148438 -19.59375 13.046875 -19.4375 C 13.117188 -18.71875 13.125 -18.007812 13.0625 -17.3125 C 13.007812 -16.613281 12.941406 -15.921875 12.859375 -15.234375 C 12.804688 -14.128906 12.765625 -13.066406 12.734375 -12.046875 C 12.710938 -11.023438 12.832031 -10.039062 13.09375 -9.09375 L 13.046875 -7.75 C 12.859375 -7.164062 12.5625 -6.679688 12.15625 -6.296875 C 11.75 -5.921875 11.351562 -5.578125 10.96875 -5.265625 C 10.40625 -4.847656 10.035156 -4.484375 9.859375 -4.171875 L 9.890625 -2.875 L 8.53125 -2.28125 C 7.75 -1.875 7.191406 -1.59375 6.859375 -1.4375 C 6.535156 -1.28125 6.148438 -1.144531 5.703125 -1.03125 L 4.453125 -0.796875 C 3.492188 -1.335938 2.722656 -1.75 2.140625 -2.03125 C 1.554688 -2.320312 0.90625 -2.539062 0.1875 -2.6875 L -0.578125 -3.296875 C -0.960938 -3.722656 -1.238281 -4.132812 -1.40625 -4.53125 C -1.582031 -4.925781 -1.796875 -5.332031 -2.046875 -5.75 C -2.390625 -6.539062 -2.734375 -7.054688 -3.078125 -7.296875 Z M 18.71875 -41.046875 C 18.164062 -39.554688 17.671875 -38.007812 17.234375 -36.40625 C 17.648438 -36.582031 18.0625 -36.722656 18.46875 -36.828125 C 18.882812 -36.941406 19.304688 -37.082031 19.734375 -37.25 C 21.910156 -37.976562 23.921875 -38.691406 25.765625 -39.390625 C 27.609375 -40.085938 29.570312 -40.953125 31.65625 -41.984375 C 30.519531 -44.179688 29.328125 -46.414062 28.078125 -48.6875 C 26.828125 -50.957031 25.523438 -53.226562 24.171875 -55.5 L 23.953125 -54.4375 C 22.835938 -52.300781 21.816406 -50.0625 20.890625 -47.71875 C 19.960938 -45.375 19.257812 -43.191406 18.78125 -41.171875 Z M 18.71875 -41.046875 "/>
</g></g></g><g fill="#8c71a0" fill-opacity="1"><g transform="translate(256.839269, 150.20851)"><g><path d="M -2.921875 -27.84375 C -2.910156 -28.113281 -2.789062 -28.257812 -2.5625 -28.28125 C -2.332031 -28.3125 -2.132812 -28.382812 -1.96875 -28.5 C -2.601562 -28.863281 -3.097656 -29.457031 -3.453125 -30.28125 C -3.804688 -31.101562 -4.316406 -31.726562 -4.984375 -32.15625 C -4.941406 -32.507812 -4.914062 -32.851562 -4.90625 -33.1875 C -4.894531 -33.53125 -4.65625 -33.726562 -4.1875 -33.78125 C -4.757812 -35.113281 -5.078125 -36.410156 -5.140625 -37.671875 C -5.210938 -38.941406 -5.125 -40.1875 -4.875 -41.40625 C -4.625 -42.632812 -4.273438 -43.863281 -3.828125 -45.09375 C -3.390625 -46.332031 -2.960938 -47.578125 -2.546875 -48.828125 C -2.015625 -49.117188 -1.65625 -49.164062 -1.46875 -48.96875 C -1.28125 -48.78125 -1.070312 -48.882812 -0.84375 -49.28125 C -0.0195312 -50.25 0.460938 -51.210938 0.609375 -52.171875 C 0.765625 -53.128906 0.707031 -54.113281 0.4375 -55.125 C 0.550781 -56.90625 0.753906 -58.695312 1.046875 -60.5 C 1.347656 -62.3125 1.785156 -64.039062 2.359375 -65.6875 C 2.941406 -67.332031 3.625 -68.816406 4.40625 -70.140625 C 5.195312 -71.472656 6.148438 -72.597656 7.265625 -73.515625 C 7.953125 -74.492188 8.882812 -75.484375 10.0625 -76.484375 C 11.25 -77.484375 12.566406 -78.363281 14.015625 -79.125 C 15.472656 -79.894531 17.019531 -80.515625 18.65625 -80.984375 C 20.289062 -81.453125 21.851562 -81.679688 23.34375 -81.671875 C 23.6875 -81.628906 23.851562 -81.757812 23.84375 -82.0625 C 23.832031 -82.363281 23.953125 -82.546875 24.203125 -82.609375 C 27.460938 -83.078125 30.457031 -83.203125 33.1875 -82.984375 C 35.914062 -82.773438 38.375 -82.125 40.5625 -81.03125 C 42.269531 -79.445312 43.953125 -77.710938 45.609375 -75.828125 C 47.265625 -73.941406 48.710938 -71.894531 49.953125 -69.6875 C 51.191406 -67.476562 52.113281 -65.097656 52.71875 -62.546875 C 53.332031 -60.003906 53.476562 -57.34375 53.15625 -54.5625 C 51.6875 -51.1875 49.597656 -48.238281 46.890625 -45.71875 C 44.191406 -43.207031 41.171875 -40.910156 37.828125 -38.828125 C 34.492188 -36.742188 30.984375 -34.832031 27.296875 -33.09375 C 23.609375 -31.363281 20.039062 -29.597656 16.59375 -27.796875 C 17.113281 -26.109375 17.597656 -24.296875 18.046875 -22.359375 C 18.503906 -20.421875 18.816406 -18.441406 18.984375 -16.421875 C 19.160156 -14.398438 19.160156 -12.382812 18.984375 -10.375 C 18.816406 -8.363281 18.375 -6.414062 17.65625 -4.53125 C 16.375 -4.257812 15.097656 -3.78125 13.828125 -3.09375 C 12.566406 -2.414062 11.4375 -1.773438 10.4375 -1.171875 C 9.851562 -1.347656 9.285156 -1.515625 8.734375 -1.671875 C 8.179688 -1.828125 7.554688 -1.847656 6.859375 -1.734375 C 6.835938 -2.546875 6.445312 -3.285156 5.6875 -3.953125 C 4.9375 -4.628906 4.179688 -5.289062 3.421875 -5.9375 C 2.671875 -6.59375 2.109375 -7.289062 1.734375 -8.03125 C 1.367188 -8.78125 1.546875 -9.585938 2.265625 -10.453125 C 1.640625 -10.753906 1.195312 -11.378906 0.9375 -12.328125 C 1.269531 -12.140625 1.625 -12.097656 2 -12.203125 C 1.570312 -13.296875 1.347656 -14.6875 1.328125 -16.375 C 1.304688 -18.070312 1.234375 -19.726562 1.109375 -21.34375 C 0.992188 -22.96875 0.664062 -24.398438 0.125 -25.640625 C -0.414062 -26.890625 -1.429688 -27.625 -2.921875 -27.84375 Z M 15.765625 -56.59375 C 15.691406 -55.832031 15.648438 -55.160156 15.640625 -54.578125 C 15.628906 -53.992188 15.585938 -53.457031 15.515625 -52.96875 C 15.441406 -52.488281 15.351562 -51.992188 15.25 -51.484375 C 15.144531 -50.984375 15.046875 -50.414062 14.953125 -49.78125 C 15.179688 -49.445312 15.507812 -49.234375 15.9375 -49.140625 C 16.363281 -49.046875 16.695312 -48.828125 16.9375 -48.484375 C 17.695312 -49.160156 18.488281 -49.726562 19.3125 -50.1875 C 20.132812 -50.644531 20.972656 -51.054688 21.828125 -51.421875 C 22.679688 -51.785156 23.519531 -52.179688 24.34375 -52.609375 C 25.175781 -53.035156 26.003906 -53.597656 26.828125 -54.296875 C 27.660156 -54.992188 28.554688 -55.625 29.515625 -56.1875 C 30.484375 -56.75 31.425781 -57.320312 32.34375 -57.90625 C 33.269531 -58.488281 34.15625 -59.113281 35 -59.78125 C 35.84375 -60.445312 36.519531 -61.222656 37.03125 -62.109375 C 35.925781 -62.691406 34.40625 -63.0625 32.46875 -63.21875 C 30.53125 -63.382812 28.507812 -63.269531 26.40625 -62.875 C 24.3125 -62.476562 22.296875 -61.78125 20.359375 -60.78125 C 18.429688 -59.789062 16.898438 -58.394531 15.765625 -56.59375 Z M 15.765625 -56.59375 "/>
</g></g></g></svg>